PathFileType	4	(X/Y/Z)	/Users/itak/Documents/Research/Walk-IL/dataset/trc/00518_00183.trc
DataRate	CameraRate	NumFrames	NumMarkers	Units	OrigDataRate	OrigDataStartFrame	OrigNumFrames
100.000000	100.000000	4	53	mm	100.000000	0	506
Frame#	Time	RPSI			LPSI			L3			STRN			T10			C7			CLAV			RBAK			LBAK			LSHO			LUPA			LAEL			LAOL			LWTS			LWPS			LFRA			LIFD			LHPS			LHTS			RSHO			RUPA			RAEL			RAOL			RWTS			RWPS			RFRA			RIFD			RHTS			RHPS			RBHD			LFHD			RFHD			LBHD			LHIP			RHIP			RASI			LASI			LKNE			LTHI			LANK			LTIP			LTOE			LMT1			LMT5			LHEE			RKNE			RANK			RTIP			RTOE			RMT1			RMT5			RHEE			RTHI			
		X1	Y1	Z1	X2	Y2	Z2	X3	Y3	Z3	X4	Y4	Z4	X5	Y5	Z5	X6	Y6	Z6	X7	Y7	Z7	X8	Y8	Z8	X9	Y9	Z9	X10	Y10	Z10	X11	Y11	Z11	X12	Y12	Z12	X13	Y13	Z13	X14	Y14	Z14	X15	Y15	Z15	X16	Y16	Z16	X17	Y17	Z17	X18	Y18	Z18	X19	Y19	Z19	X20	Y20	Z20	X21	Y21	Z21	X22	Y22	Z22	X23	Y23	Z23	X24	Y24	Z24	X25	Y25	Z25	X26	Y26	Z26	X27	Y27	Z27	X28	Y28	Z28	X29	Y29	Z29	X30	Y30	Z30	X31	Y31	Z31	X32	Y32	Z32	X33	Y33	Z33	X34	Y34	Z34	X35	Y35	Z35	X36	Y36	Z36	X37	Y37	Z37	X38	Y38	Z38	X39	Y39	Z39	X40	Y40	Z40	X41	Y41	Z41	X42	Y42	Z42	X43	Y43	Z43	X44	Y44	Z44	X45	Y45	Z45	X46	Y46	Z46	X47	Y47	Z47	X48	Y48	Z48	X49	Y49	Z49	X50	Y50	Z50	X51	Y51	Z51	X52	Y52	Z52	X53	Y53	Z53	

1	0	-1254.472900390625	970.6436157226562	-414.3399047851562	-1221.670288085938	971.1216430664062	-533.604736328125	-1255.0185546875	1027.376953125	-480.4564819335938	-1041.251098632812	1203.730346679688	-443.0831604003906	-1273.935791015625	1133.6826171875	-481.4100036621094	-1233.22509765625	1364.761596679688	-472.3686828613281	-1079.850341796875	1296.86865234375	-450.2717590332031	-1290.063598632812	1241.554443359375	-394.3222961425781	-1242.80126953125	1308.170776367188	-560.7745361328125	-1142.929565429688	1360.702270507812	-621.6644897460938	-1147.162353515625	1233.561401367188	-681.1856079101562	-1134.624267578125	1023.486022949219	-703.82177734375	-1209.732421875	1015.610595703125	-637.8234252929688	-1045.950927734375	836.4913940429688	-660.5105590820312	-1123.68603515625	799.1771240234375	-700.1361694335938	-1116.139404296875	938.17431640625	-703.7767944335938	-1036.767333984375	681.0170288085938	-652.8936767578125	-1098.206176757812	746.9320678710938	-696.4951171875	-1035.80419921875	759.2225341796875	-680.3189697265625	-1204.0546875	1362.782592773438	-317.7276306152344	-1227.754028320312	1294.950927734375	-263.7203369140625	-1219.79150390625	1026.434814453125	-220.1861114501953	-1262.838134765625	1007.221862792969	-266.9311218261719	-1110.405639648438	826.0377197265625	-234.1338195800781	-1191.8076171875	798.6708984375	-201.5734100341797	-1216.260131835938	972.0231323242188	-213.5686187744141	-1105.89013671875	667.2362670898438	-228.3852081298828	-1098.924682617188	734.6468505859375	-206.4531402587891	-1168.822875976562	730.43212890625	-196.86572265625	-1216.545776367188	1524.0087890625	-387.5422058105469	-1057.621826171875	1590.81201171875	-490.9429931640625	-1093.533203125	1584.50927734375	-368.9234619140625	-1185.21630859375	1527.275756835938	-544.1940307617188	-1086.307739257812	895.647216796875	-636.44921875	-1184.733276367188	868.4979858398438	-271.9199829101562	-1071.080078125	912.302490234375	-308.0123291015625	-1013.098693847656	926.8800659179688	-543.7939453125	-1107.670654296875	475.7405395507812	-606.5422973632812	-1079.023559570312	631.925537109375	-619.8911743164062	-1208.87744140625	49.77573013305664	-618.8841552734375	-1146.443359375	331.6570129394531	-619.99267578125	-1025.042846679688	38.69418716430664	-524.077392578125	-1106.708129882812	43.35639572143555	-505.3336791992188	-1099.088256835938	45.41422653198242	-606.8522338867188	-1267.89013671875	42.93044281005859	-566.9999389648438	-1189.594116210938	482.0265502929688	-289.1764831542969	-1226.827514648438	48.77500915527344	-331.1288146972656	-1187.19384765625	340.8197937011719	-305.98046875	-1025.582397460938	47.58834457397461	-371.6796569824219	-1091.824340820312	52.52371597290039	-409.5837097167969	-1112.796997070312	46.8272705078125	-316.3341064453125	-1278.490234375	39.19281768798828	-379.9626770019531	-1167.346801757812	741.2200317382812	-256.021728515625	
2	0.01	-1254.47900390625	970.6495361328125	-414.4416809082031	-1221.6748046875	971.116455078125	-533.696044921875	-1255.040161132812	1027.393676757812	-480.5191345214844	-1041.228759765625	1203.731323242188	-443.1243896484375	-1273.92626953125	1133.696655273438	-481.51513671875	-1233.198364257812	1364.774658203125	-472.4591979980469	-1079.8310546875	1296.891357421875	-450.3432922363281	-1290.047607421875	1241.564331054688	-394.4205322265625	-1242.78076171875	1308.191528320312	-560.8463134765625	-1142.888305664062	1360.7275390625	-621.7262573242188	-1147.160034179688	1233.612915039062	-681.2582397460938	-1134.585815429688	1023.512878417969	-703.8936157226562	-1209.700561523438	1015.624206542969	-637.9179077148438	-1045.876098632812	836.5484619140625	-660.5663452148438	-1123.683959960938	799.1882934570312	-700.1884765625	-1116.10498046875	938.1925659179688	-703.8391723632812	-1036.676391601562	681.0381469726562	-652.9586181640625	-1098.158813476562	746.9312133789062	-696.5744018554688	-1035.802734375	759.236572265625	-680.3867797851562	-1204.048583984375	1362.779418945312	-317.7864379882812	-1227.738403320312	1294.939453125	-263.7925415039062	-1219.800537109375	1026.414916992188	-220.2921905517578	-1262.8583984375	1007.227172851562	-267.0055847167969	-1110.433471679688	826.0194091796875	-234.2266693115234	-1191.830200195312	798.6552124023438	-201.6932983398438	-1216.287841796875	972.017578125	-213.63623046875	-1105.926025390625	667.2130126953125	-228.5207061767578	-1098.9609375	734.6275634765625	-206.5571899414062	-1168.856323242188	730.4238891601562	-196.9729461669922	-1216.510009765625	1523.990112304688	-387.545166015625	-1057.687255859375	1590.830200195312	-491.0318603515625	-1093.50537109375	1584.523559570312	-368.9861450195312	-1185.280395507812	1527.292724609375	-544.2277221679688	-1086.275756835938	895.6705322265625	-636.5061645507812	-1184.739624023438	868.4871215820312	-272.0105895996094	-1071.093627929688	912.305908203125	-308.0985107421875	-1013.060241699219	926.8933715820312	-543.8723754882812	-1107.686645507812	475.7333374023438	-606.6006469726562	-1079.001342773438	631.9234008789062	-619.936279296875	-1208.877075195312	49.77085113525391	-618.8867797851562	-1146.476196289062	331.6856384277344	-620.0200805664062	-1025.045166015625	38.6907844543457	-524.0797119140625	-1106.689453125	43.36435317993164	-505.3305053710938	-1099.090087890625	45.41696929931641	-606.8519287109375	-1267.89892578125	42.93699645996094	-566.9843139648438	-1189.614379882812	482.0326232910156	-289.2124633789062	-1226.824951171875	48.77611541748047	-331.1307678222656	-1187.2080078125	340.8319396972656	-306.0126953125	-1025.58154296875	47.57967376708984	-371.6890258789062	-1091.810546875	52.5211181640625	-409.5913696289062	-1112.794799804688	46.82807540893555	-316.3362426757812	-1278.489990234375	39.19071578979492	-379.9629516601562	-1167.231689453125	741.251953125	-256.0271301269531	
3	0.02	-1254.48828125	970.6582641601562	-414.57275390625	-1221.678833007812	971.1097412109375	-533.8201293945312	-1255.066284179688	1027.418212890625	-480.6046142578125	-1041.200317382812	1203.7314453125	-443.178955078125	-1273.916259765625	1133.716430664062	-481.6465759277344	-1233.162719726562	1364.7939453125	-472.5773620605469	-1079.79443359375	1296.92333984375	-450.438232421875	-1290.02587890625	1241.578735351562	-394.5484924316406	-1242.754028320312	1308.21875	-560.9385986328125	-1142.832641601562	1360.760864257812	-621.8086547851562	-1147.15087890625	1233.680053710938	-681.3553466796875	-1134.530883789062	1023.547302246094	-703.9874877929688	-1209.657348632812	1015.642761230469	-638.0447387695312	-1045.78125	836.6217651367188	-660.639892578125	-1123.678100585938	799.2068481445312	-700.2574462890625	-1116.059326171875	938.22021484375	-703.9218139648438	-1036.571899414062	681.067138671875	-653.0470581054688	-1098.099609375	746.9307861328125	-696.680908203125	-1035.796630859375	759.2548828125	-680.4761352539062	-1204.037841796875	1362.777465820312	-317.8659057617188	-1227.717041015625	1294.925659179688	-263.8871459960938	-1219.810791015625	1026.391357421875	-220.4272918701172	-1262.880737304688	1007.234680175781	-267.1060791015625	-1110.464233398438	825.99560546875	-234.3570709228516	-1191.857177734375	798.635986328125	-201.8487091064453	-1216.319946289062	972.0117797851562	-213.7271270751953	-1105.974731445312	667.182861328125	-228.6958160400391	-1099.0068359375	734.6027221679688	-206.6938323974609	-1168.897827148438	730.4135131835938	-197.1164855957031	-1216.464477539062	1523.96630859375	-387.5513000488281	-1057.7763671875	1590.856689453125	-491.1502380371094	-1093.472900390625	1584.541748046875	-369.0682983398438	-1185.366088867188	1527.313720703125	-544.274658203125	-1086.237670898438	895.6975708007812	-636.5783081054688	-1184.738647460938	868.464111328125	-272.1400146484375	-1071.11181640625	912.31103515625	-308.2143249511719	-1013.013732910156	926.9105834960938	-543.9746704101562	-1107.709228515625	475.722900390625	-606.6773681640625	-1078.971313476562	631.919921875	-619.9932861328125	-1208.876220703125	49.76335144042969	-618.892333984375	-1146.514404296875	331.7185974121094	-620.0560302734375	-1025.047607421875	38.68710708618164	-524.0826416015625	-1106.664306640625	43.37497329711914	-505.3262023925781	-1099.092651367188	45.42028427124023	-606.8524780273438	-1267.9091796875	42.94392776489258	-566.9664916992188	-1189.640747070312	482.0409851074219	-289.2610168457031	-1226.822265625	48.77830123901367	-331.1344604492188	-1187.2255859375	340.847900390625	-306.0569458007812	-1025.580322265625	47.56820297241211	-371.7020263671875	-1091.792358398438	52.51668167114258	-409.6022338867188	-1112.79248046875	46.82931518554688	-316.3399658203125	-1278.489990234375	39.18917465209961	-379.9640808105469	-1167.109619140625	741.2926635742188	-256.0414123535156	
4	0.03	-1254.501342773438	970.670166015625	-414.728515625	-1221.681396484375	971.101806640625	-533.9759521484375	-1255.0947265625	1027.451171875	-480.7128295898438	-1041.166625976562	1203.730224609375	-443.2459716796875	-1273.906860351562	1133.742065429688	-481.7974853515625	-1233.119018554688	1364.819580078125	-472.7196655273438	-1079.736083984375	1296.96484375	-450.5544738769531	-1289.998779296875	1241.597900390625	-394.7021179199219	-1242.721313476562	1308.251586914062	-561.04833984375	-1142.762939453125	1360.80126953125	-621.9100952148438	-1147.13134765625	1233.760498046875	-681.4754028320312	-1134.458862304688	1023.587951660156	-704.1005859375	-1209.603637695312	1015.666198730469	-638.2015380859375	-1045.671142578125	836.7078857421875	-660.7296142578125	-1123.666625976562	799.2341918945312	-700.341796875	-1116.003173828125	938.2584228515625	-704.0230102539062	-1036.464111328125	681.1033325195312	-653.157958984375	-1098.032592773438	746.931396484375	-696.8131713867188	-1035.783813476562	759.277099609375	-680.5846557617188	-1204.021850585938	1362.7783203125	-317.965087890625	-1227.690185546875	1294.910888671875	-264.0015563964844	-1219.820922851562	1026.366088867188	-220.5857238769531	-1262.902099609375	1007.244445800781	-267.2315063476562	-1110.494018554688	825.96728515625	-234.5257110595703	-1191.886840820312	798.6143798828125	-202.0346832275391	-1216.353149414062	972.0064697265625	-213.8406829833984	-1106.03564453125	667.1470336914062	-228.9041442871094	-1099.059692382812	734.5731201171875	-206.8597106933594	-1168.945190429688	730.4014892578125	-197.2939147949219	-1216.410888671875	1523.938110351562	-387.561767578125	-1057.887573242188	1590.892333984375	-491.2958068847656	-1093.43896484375	1584.563354492188	-369.1675720214844	-1185.471801757812	1527.337158203125	-544.3352661132812	-1086.196533203125	895.7255859375	-636.6624145507812	-1184.72802734375	868.4271850585938	-272.3113708496094	-1071.134155273438	912.3181762695312	-308.3581848144531	-1012.962829589844	926.93115234375	-544.0975952148438	-1107.738525390625	475.7088623046875	-606.7706298828125	-1078.93359375	631.9149169921875	-620.0599365234375	-1208.875	49.75283050537109	-618.9021606445312	-1146.55419921875	331.7528991699219	-620.099609375	-1025.049682617188	38.68356704711914	-524.0860595703125	-1106.63330078125	43.38804626464844	-505.3208618164062	-1099.095825195312	45.42378997802734	-606.8541259765625	-1267.919921875	42.95049667358398	-566.9478759765625	-1189.67236328125	482.0516052246094	-289.3217163085938	-1226.819580078125	48.78190612792969	-331.1403503417969	-1187.245727539062	340.8671875	-306.1132507324219	-1025.57861328125	47.5540885925293	-371.71875	-1091.770385742188	52.509765625	-409.6163940429688	-1112.789794921875	46.83104705810547	-316.3455810546875	-1278.489990234375	39.18885803222656	-379.9664001464844	-1166.997314453125	741.3409423828125	-256.06787109375	
